<?xml version="1.0" encoding="UTF-8" standalone="no"?>
<!-- Created with Inkscape (http://www.inkscape.org/) -->

<svg
   xmlns:dc="http://purl.org/dc/elements/1.1/"
   xmlns:cc="http://creativecommons.org/ns#"
   xmlns:rdf="http://www.w3.org/1999/02/22-rdf-syntax-ns#"
   xmlns:svg="http://www.w3.org/2000/svg"
   xmlns="http://www.w3.org/2000/svg"
   xmlns:sodipodi="http://sodipodi.sourceforge.net/DTD/sodipodi-0.dtd"
   xmlns:inkscape="http://www.inkscape.org/namespaces/inkscape"
   width="400"
   height="400"
   viewBox="0 0 105.83333 105.83334"
   version="1.1"
   id="svg1206"
   inkscape:version="0.92.2 5c3e80d, 2017-08-06"
   sodipodi:docname="delivery.svg">
  <defs
     id="defs1200" />
  <sodipodi:namedview
     id="base"
     pagecolor="#ffffff"
     bordercolor="#666666"
     borderopacity="1.0"
     inkscape:pageopacity="0.0"
     inkscape:pageshadow="2"
     inkscape:zoom="0.98994949"
     inkscape:cx="69.739593"
     inkscape:cy="118.31999"
     inkscape:document-units="mm"
     inkscape:current-layer="layer5"
     showgrid="false"
     units="px"
     inkscape:snap-to-guides="false"
     inkscape:snap-grids="false"
     inkscape:snap-others="false"
     inkscape:window-width="1920"
     inkscape:window-height="1016"
     inkscape:window-x="1366"
     inkscape:window-y="27"
     inkscape:window-maximized="1" />
  <metadata
     id="metadata1203">
    <rdf:RDF>
      <cc:Work
         rdf:about="">
        <dc:format>image/svg+xml</dc:format>
        <dc:type
           rdf:resource="http://purl.org/dc/dcmitype/StillImage" />
        <dc:title />
      </cc:Work>
    </rdf:RDF>
  </metadata>
  <g
     inkscape:groupmode="layer"
     id="layer5"
     inkscape:label="Capa 5">
    <g
       transform="matrix(1.1455829,0,0,1.1455829,-4.2760603,-1094.2899)"
       id="g1754"
       style="fill:#c5259c;fill-opacity:1">
      <path
         inkscape:connector-curvature="0"
         style="color:#000000;text-indent:0;text-transform:none;direction:ltr;baseline-shift:baseline;display:inline;overflow:visible;visibility:visible;fill:#c5259c;fill-opacity:1;stroke:none;enable-background:accumulate"
         d="m 16,975.36217 c -0.5523,0 -1,0.44772 -1,1 0,0.55228 0.4477,1 1,1 h 50.4688 l 10.6875,16.53123 c 0.1162,0.1852 0.2949,0.3304 0.5,0.4063 l 15.3437,5.75 v 21.3125 h -8 c 0,-4.4064 -3.5936,-8 -8,-8 -4.4064,0 -8,3.5936 -8,8 H 41 c 0,-4.4064 -3.5936,-8 -8,-8 -4.4064,0 -8,3.5936 -8,8 h -8 v -13 c 0,-0.5523 -0.4477,-1 -1,-1 -0.5523,0 -1,0.4477 -1,1 v 14 c 10e-5,0.5235 0.4764,0.9999 1,1 h 9.2813 c 0.8967,3.4373 4.0073,6 7.7187,6 3.7127,0 6.8546,-2.5608 7.75,-6 h 28.5313 c 0.8967,3.4373 4.0073,6 7.7187,6 3.7127,0 6.8546,-2.5608 7.75,-6 H 94 c 0.5236,-10e-5 0.9999,-0.4765 1,-1 v -23 c -7e-4,-0.4061 -0.2749,-0.7979 -0.6562,-0.9375 L 78.6563,992.5497 67.8438,975.83092 C 67.6654,975.54646 67.3358,975.36334 67,975.36217 Z m -9.9999999,8 c -0.5523,0 -1,0.44772 -1,1 0,0.55223 0.4477,1.00003 1,1.00003 H 33.9573 c 0.5523,0 1,-0.4478 1,-1.00003 0,-0.55228 -0.4477,-1 -1,-1 z m 2,8.00003 c -0.5523,0 -1,0.4477 -1,1 0,0.5522 0.4477,1 1,1 H 33.9573 c 0.5523,0 1,-0.4478 1,-1 0,-0.5523 -0.4477,-1 -1,-1 z m 3.9999999,8 c -0.5523,0 -1,0.4477 -1,1 0,0.5522 0.4477,1 1,1 h 21.9573 c 0.5523,0 1,-0.4478 1,-1 0,-0.5523 -0.4477,-1 -1,-1 z m 21,16 c 3.3256,0 6,2.6745 6,6 0,3.3256 -2.6744,6 -6,6 -3.3256,0 -6,-2.6744 -6,-6 0,-3.3255 2.6744,-6 6,-6 z m 44,0 c 3.3256,0 6,2.6745 6,6 0,3.3256 -2.6744,6 -6,6 -3.3256,0 -6,-2.6744 -6,-6 0,-3.3255 2.6744,-6 6,-6 z"
         marker="none"
         visibility="visible"
         display="inline"
         overflow="visible"
         id="path1752" />
    </g>
  </g>
</svg>
