<?xml version="1.0" encoding="UTF-8" standalone="no"?>
<!-- Created with Inkscape (http://www.inkscape.org/) -->

<svg
   xmlns:dc="http://purl.org/dc/elements/1.1/"
   xmlns:cc="http://creativecommons.org/ns#"
   xmlns:rdf="http://www.w3.org/1999/02/22-rdf-syntax-ns#"
   xmlns:svg="http://www.w3.org/2000/svg"
   xmlns="http://www.w3.org/2000/svg"
   xmlns:sodipodi="http://sodipodi.sourceforge.net/DTD/sodipodi-0.dtd"
   xmlns:inkscape="http://www.inkscape.org/namespaces/inkscape"
   width="400"
   height="400"
   viewBox="0 0 105.83333 105.83334"
   version="1.1"
   id="svg1206"
   inkscape:version="0.92.2 5c3e80d, 2017-08-06"
   sodipodi:docname="package.svg">
  <defs
     id="defs1200" />
  <sodipodi:namedview
     id="base"
     pagecolor="#ffffff"
     bordercolor="#666666"
     borderopacity="1.0"
     inkscape:pageopacity="0.0"
     inkscape:pageshadow="2"
     inkscape:zoom="0.98994949"
     inkscape:cx="69.739593"
     inkscape:cy="158.72609"
     inkscape:document-units="mm"
     inkscape:current-layer="layer4"
     showgrid="false"
     units="px"
     inkscape:snap-to-guides="false"
     inkscape:snap-grids="false"
     inkscape:snap-others="false"
     inkscape:window-width="1920"
     inkscape:window-height="1016"
     inkscape:window-x="1366"
     inkscape:window-y="27"
     inkscape:window-maximized="1" />
  <metadata
     id="metadata1203">
    <rdf:RDF>
      <cc:Work
         rdf:about="">
        <dc:format>image/svg+xml</dc:format>
        <dc:type
           rdf:resource="http://purl.org/dc/dcmitype/StillImage" />
        <dc:title />
      </cc:Work>
    </rdf:RDF>
  </metadata>
  <g
     inkscape:groupmode="layer"
     id="layer4"
     inkscape:label="Capa 4">
    <g
       transform="matrix(1.1820265,0,0,1.1820265,-5.7601887,-1131.9047)"
       id="g1543"
       style="fill:#6d25c5;fill-opacity:1">
      <path
         inkscape:connector-curvature="0"
         style="color:#000000;text-indent:0;text-transform:none;direction:ltr;baseline-shift:baseline;display:inline;overflow:visible;visibility:visible;fill:#6d25c5;fill-opacity:1;stroke:none;enable-background:accumulate"
         d="m 49.625002,958.43576 -40.0000004,16 c -0.36985,0.1496 -0.62914,0.5386 -0.625,0.9375 v 54.00004 c 0.008,0.3885 0.26475,0.7606 0.625,0.9062 l 40.0000004,16 c 0.23757,0.096 0.51244,0.096 0.75,0 l 40,-16 c 0.36025,-0.1456 0.61687,-0.5177 0.625,-0.9062 v -54.00004 c 0.004,-0.3989 -0.25515,-0.7879 -0.625,-0.9375 l -40,-16 c -0.39523,-0.1269 -0.63126,-0.027 -0.75,0 z m 0.375,2 37.3125,14.9375 -17.3125,6.9062 -37.3125,-14.9062 z m -20,8 37.3125,14.9375 -17.3125,6.90624 -37.3125,-14.90624 z m -19,8.4063 38,15.18744 v 51.8438 l -38,-15.1875 z m 78,0 v 51.84374 l -18,7.1875 v -14.5 c 0.0226,-0.5782 -0.55092,-1.1039 -1.125,-1.0312 -0.49121,0.062 -0.89424,0.5365 -0.875,1.0312 v 15 c -0.003,0.095 0.008,0.1896 0.0312,0.2812 l -18.0312,7.2188 v -51.8438 l 18,-7.18744 v 14.53124 c -0.007,0.5283 0.47163,1.0142 1,1.0142 0.52837,0 1.00747,-0.4859 1,-1.0142 v -15.00004 c 0.006,-0.1049 -0.005,-0.2108 -0.0312,-0.3125 z"
         marker="none"
         visibility="visible"
         display="inline"
         overflow="visible"
         id="path1541" />
    </g>
  </g>
</svg>
