<?xml version="1.0" encoding="UTF-8" standalone="no"?>
<!-- Created with Inkscape (http://www.inkscape.org/) -->

<svg
   xmlns:dc="http://purl.org/dc/elements/1.1/"
   xmlns:cc="http://creativecommons.org/ns#"
   xmlns:rdf="http://www.w3.org/1999/02/22-rdf-syntax-ns#"
   xmlns:svg="http://www.w3.org/2000/svg"
   xmlns="http://www.w3.org/2000/svg"
   xmlns:sodipodi="http://sodipodi.sourceforge.net/DTD/sodipodi-0.dtd"
   xmlns:inkscape="http://www.inkscape.org/namespaces/inkscape"
   width="400"
   height="400"
   viewBox="0 0 105.83333 105.83334"
   version="1.1"
   id="svg1206"
   inkscape:version="0.92.2 5c3e80d, 2017-08-06"
   sodipodi:docname="server.svg">
  <defs
     id="defs1200" />
  <sodipodi:namedview
     id="base"
     pagecolor="#ffffff"
     bordercolor="#666666"
     borderopacity="1.0"
     inkscape:pageopacity="0.0"
     inkscape:pageshadow="2"
     inkscape:zoom="0.98994949"
     inkscape:cx="69.739593"
     inkscape:cy="158.72609"
     inkscape:document-units="mm"
     inkscape:current-layer="layer2"
     showgrid="false"
     units="px"
     inkscape:snap-to-guides="false"
     inkscape:snap-grids="false"
     inkscape:snap-others="false"
     inkscape:window-width="1920"
     inkscape:window-height="1016"
     inkscape:window-x="1366"
     inkscape:window-y="27"
     inkscape:window-maximized="1" />
  <metadata
     id="metadata1203">
    <rdf:RDF>
      <cc:Work
         rdf:about="">
        <dc:format>image/svg+xml</dc:format>
        <dc:type
           rdf:resource="http://purl.org/dc/dcmitype/StillImage" />
        <dc:title />
      </cc:Work>
    </rdf:RDF>
  </metadata>
  <g
     inkscape:groupmode="layer"
     id="layer2"
     inkscape:label="Capa 2">
    <g
       id="g4"
       transform="matrix(1.0944694,0,0,1.0944694,-1.8315537,-1043.8621)"
       style="opacity:1;fill:#25aec5;fill-opacity:1">
      <path
         inkscape:connector-curvature="0"
         id="path2"
         overflow="visible"
         display="inline"
         visibility="visible"
         marker="none"
         d="m 16,954.36218 c -3.8607,0 -7.0000001,3.1393 -7.0000001,7 v 6 c 0,3.8607 3.1393001,7 7.0000001,7 h 68 c 3.8607,0 7,-3.1393 7,-7 v -6 c 0,-3.8607 -3.1393,-7 -7,-7 z m 0,2 h 68 c 2.7873,0 5,2.2127 5,5 v 6 c 0,2.7873 -2.2127,5 -5,5 H 16 c -2.7873,0 -5,-2.2127 -5,-5 v -6 c 0,-2.7873 2.2127,-5 5,-5 z m 3,5 c -1.65683,0 -3,1.3432 -3,3 0,1.6569 1.34317,3 3,3 1.65682,0 3,-1.3431 3,-3 0,-1.6568 -1.34318,-3 -3,-3 z m 12,0 c -1.65683,0 -3,1.3432 -3,3 0,1.6569 1.34317,3 3,3 1.65682,0 3,-1.3431 3,-3 0,-1.6568 -1.34318,-3 -3,-3 z m 12,0 c -1.65682,0 -3,1.3432 -3,3 0,1.6569 1.34318,3 3,3 1.65682,0 3,-1.3431 3,-3 0,-1.6568 -1.34318,-3 -3,-3 z m -27,19 c -3.8607,0 -7.0000001,3.1393 -7.0000001,7 v 6 c 0,3.8607 3.1393001,7.00002 7.0000001,7.00002 h 68 c 3.8607,0 7,-3.13932 7,-7.00002 v -6 c 0,-3.8607 -3.1393,-7 -7,-7 z m 0,2 h 68 c 2.7873,0 5,2.2127 5,5 v 6 c 0,2.7873 -2.2127,5 -5,5 H 16 c -2.7873,0 -5,-2.2127 -5,-5 v -6 c 0,-2.7873 2.2127,-5 5,-5 z m 3,5 c -1.65683,0 -3,1.3432 -3,3 0,1.6569 1.34317,3 3,3 1.65682,0 3,-1.3431 3,-3 0,-1.6568 -1.34318,-3 -3,-3 z m 12,0 c -1.65683,0 -3,1.3432 -3,3 0,1.6569 1.34317,3 3,3 1.65682,0 3,-1.3431 3,-3 0,-1.6568 -1.34318,-3 -3,-3 z m 12,0 c -1.65682,0 -3,1.3432 -3,3 0,1.6569 1.34318,3 3,3 1.65682,0 3,-1.3431 3,-3 0,-1.6568 -1.34318,-3 -3,-3 z m -27,19.00002 c -3.8607,0 -7.0000001,3.1393 -7.0000001,7 v 6 c 0,3.8607 3.1393001,7 7.0000001,7 h 33 v 12.0938 c -2.50256,0.4191 -4.47445,2.4078 -4.90625,4.9062 h -29.1875 c -0.48737,-2.8199 -2.95188,-5 -5.9062501,-5 -3.30185,0 -5.9999999,2.6981 -5.9999999,6 0,3.3019 2.6981499,6 5.9999999,6 2.9649701,0 5.4314301,-2.1652 5.9062501,-5 h 29.1875 c 0.47482,2.8348 2.94128,5 5.90625,5 2.96497,0 5.43143,-2.1652 5.90625,-5 h 29.1875 c 0.47482,2.8348 2.94128,5 5.90625,5 3.30185,0 6,-2.6981 6,-6 0,-3.3019 -2.69815,-6 -6,-6 -2.95437,0 -5.41888,2.1801 -5.90625,5 h -29.1875 c -0.4318,-2.4984 -2.40369,-4.4871 -4.90625,-4.9062 v -12.0938 h 33 c 3.8607,0 7,-3.1393 7,-7 v -6 c 0,-3.8607 -3.1393,-7 -7,-7 z m 0,2 h 68 c 2.7873,0 5,2.2127 5,5 v 6 c 0,2.7873 -2.2127,5 -5,5 H 16 c -2.7873,0 -5,-2.2127 -5,-5 v -6 c 0,-2.7873 2.2127,-5 5,-5 z m 3,5 c -1.65683,0 -3,1.3432 -3,3 0,1.6569 1.34317,3 3,3 1.65682,0 3,-1.3431 3,-3 0,-1.6568 -1.34318,-3 -3,-3 z m 12,0 c -1.65683,0 -3,1.3432 -3,3 0,1.6569 1.34317,3 3,3 1.65682,0 3,-1.3431 3,-3 0,-1.6568 -1.34318,-3 -3,-3 z m 12,0 c -1.65682,0 -3,1.3432 -3,3 0,1.6569 1.34318,3 3,3 1.65682,0 3,-1.3431 3,-3 0,-1.6568 -1.34318,-3 -3,-3 z m -34.0000001,27 c 2.2209501,0 4.0000001,1.7791 4.0000001,4 0,2.2209 -1.77905,4 -4.0000001,4 -2.22095,0 -4,-1.7791 -4,-4 0,-2.2209 1.77905,-4 4,-4 z m 41.0000001,0 c 2.22095,0 4,1.7791 4,4 0,2.2209 -1.77905,4 -4,4 -2.22095,0 -4,-1.7791 -4,-4 0,-2.2209 1.77905,-4 4,-4 z m 41,0 c 2.22095,0 4,1.7791 4,4 0,2.2209 -1.77905,4 -4,4 -2.22095,0 -4,-1.7791 -4,-4 0,-2.2209 1.77905,-4 4,-4 z"
         style="color:#000000;text-indent:0;text-transform:none;direction:ltr;baseline-shift:baseline;display:inline;overflow:visible;visibility:visible;fill:#25aec5;fill-opacity:1;stroke:none;enable-background:accumulate" />
    </g>
  </g>
</svg>
