<?xml version="1.0" encoding="utf-8"?>
<!-- Generator: Adobe Illustrator 15.1.0, SVG Export Plug-In . SVG Version: 6.00 Build 0)  -->
<!DOCTYPE svg PUBLIC "-//W3C//DTD SVG 1.0//EN" "http://www.w3.org/TR/2001/REC-SVG-20010904/DTD/svg10.dtd">
<svg version="1.0" id="Layer_1" xmlns="http://www.w3.org/2000/svg" xmlns:xlink="http://www.w3.org/1999/xlink" x="0px" y="0px"
	 width="512.942px" height="60px" viewBox="0 0 512.942 60" enable-background="new 0 0 512.942 60" xml:space="preserve">
<g>
	<path fill="#ffffff" d="M29.023,59.971h82.572c4.701,0,8.508-3.806,8.508-8.502c0-4.703-3.807-8.508-8.508-8.508l-82.572-0.01
		c-6.636,0-11.251-5.375-11.251-12.005c0-6.635,4.615-12.015,11.251-12.015l82.572-0.005c4.701,0,8.508-3.817,8.508-8.508
		c0-4.702-3.807-8.51-8.508-8.51L29.023,1.914C13,1.914,0,14.908,0,30.946C0,46.974,13,59.971,29.023,59.971"/>
	<path fill="#ffffff" d="M379.327,18.302l55.727,20.426l0.078,12.678c0,4.752,3.616,8.592,8.359,8.592s8.587-3.839,8.587-8.592
		l-0.148-12.678l55.707-20.426c3.121-1.294,5.306-4.359,5.306-7.942c0-4.75-3.839-8.593-8.585-8.593
		c-1.107,0-2.173,0.214-3.139,0.59l-57.728,20.978L385.764,2.357c-0.974-0.376-2.037-0.59-3.141-0.59
		c-4.74,0-8.594,3.842-8.594,8.593C374.03,13.942,376.213,17.007,379.327,18.302"/>
	<path fill="#ffffff" d="M259.937,60c2.09,0,3.993-0.75,5.481-1.976l18.879-13.16H366.4l18.849,13.239
		c1.477,1.188,3.357,1.897,5.396,1.897c4.742,0,8.584-3.843,8.584-8.597c0-2.826-1.365-5.338-3.482-6.902L335.492,2.633
		c-3.774-3.07-13.68-4.012-20.291,0.235l-60.594,41.806c-1.988,1.566-3.265,4.004-3.265,6.73C251.342,56.157,255.193,60,259.937,60
		 M321.342,18.913c2.361-1.658,4.943-2.126,7.775-0.234l18.646,12.967h-44.828L321.342,18.913z"/>
	<path fill="#ffffff" d="M136.312,59.998c4.743,0,8.594-3.841,8.594-8.594V46.75h74.743l9.737,10.295
		c1.578,1.814,3.902,2.953,6.488,2.953c4.743,0,8.596-3.841,8.596-8.594c0-2.102-0.762-4.03-2.018-5.523l-7.207-7.365
		c4.731-3.759,7.758-9.559,7.758-16.069c0-11.335-9.19-20.515-20.521-20.515h-86.113c-4.475-0.01-8.496,3.529-8.496,7.308
		l0.086,42.165C127.959,56.157,131.567,59.998,136.312,59.998 M221.54,18.998c2.948,0,5.341,2.392,5.341,5.338
		c0,2.949-2.394,5.336-5.341,5.336l-76.663,0.091l-0.015-10.766H221.54z"/>
</g>
</svg>
