<?xml version="1.0" encoding="UTF-8" standalone="no"?>
<!-- Created with Inkscape (http://www.inkscape.org/) -->

<svg
   xmlns:dc="http://purl.org/dc/elements/1.1/"
   xmlns:cc="http://creativecommons.org/ns#"
   xmlns:rdf="http://www.w3.org/1999/02/22-rdf-syntax-ns#"
   xmlns:svg="http://www.w3.org/2000/svg"
   xmlns="http://www.w3.org/2000/svg"
   xmlns:xlink="http://www.w3.org/1999/xlink"
   xmlns:sodipodi="http://sodipodi.sourceforge.net/DTD/sodipodi-0.dtd"
   xmlns:inkscape="http://www.inkscape.org/namespaces/inkscape"
   width="1488.189"
   height="1052.3622"
   id="svg2"
   version="1.1"
   inkscape:version="0.48.4 r9939"
   sodipodi:docname="New document 1">
  <sodipodi:namedview
     id="base"
     pagecolor="#ffffff"
     bordercolor="#666666"
     borderopacity="1.0"
     inkscape:pageopacity="0.0"
     inkscape:pageshadow="2"
     inkscape:zoom="0.35"
     inkscape:cx="368.5554"
     inkscape:cy="457.63461"
     inkscape:document-units="px"
     inkscape:current-layer="text5763"
     showgrid="false"
     inkscape:window-width="1680"
     inkscape:window-height="991"
     inkscape:window-x="0"
     inkscape:window-y="27"
     inkscape:window-maximized="1" />
  <defs
     id="defs4">
    <inkscape:perspective
       id="perspective3106"
       inkscape:persp3d-origin="372.04724 : 350.78739 : 1"
       inkscape:vp_z="744.09448 : 526.18109 : 1"
       inkscape:vp_y="0 : 1000 : 0"
       inkscape:vp_x="0 : 526.18109 : 1"
       sodipodi:type="inkscape:persp3d" />
    <inkscape:perspective
       sodipodi:type="inkscape:persp3d"
       inkscape:vp_x="0 : 526.18109 : 1"
       inkscape:vp_y="0 : 1000 : 0"
       inkscape:vp_z="744.09448 : 526.18109 : 1"
       inkscape:persp3d-origin="372.04724 : 350.78739 : 1"
       id="perspective10" />
    <inkscape:perspective
       id="perspective2447"
       inkscape:persp3d-origin="372.04724 : 350.78739 : 1"
       inkscape:vp_z="744.09448 : 526.18109 : 1"
       inkscape:vp_y="0 : 1000 : 0"
       inkscape:vp_x="0 : 526.18109 : 1"
       sodipodi:type="inkscape:persp3d" />
    <inkscape:perspective
       sodipodi:type="inkscape:persp3d"
       inkscape:vp_x="0 : 526.18109 : 1"
       inkscape:vp_y="0 : 1000 : 0"
       inkscape:vp_z="744.09448 : 526.18109 : 1"
       inkscape:persp3d-origin="372.04724 : 350.78739 : 1"
       id="perspective10-9" />
    <linearGradient
       id="linearGradient3179">
      <stop
         id="stop3187"
         offset="0"
         style="stop-color:#f3eedf;stop-opacity:1;" />
      <stop
         style="stop-color:#d5c391;stop-opacity:1;"
         offset="1"
         id="stop3199" />
    </linearGradient>
    <inkscape:perspective
       id="perspective2447-4"
       inkscape:persp3d-origin="372.04724 : 350.78739 : 1"
       inkscape:vp_z="744.09448 : 526.18109 : 1"
       inkscape:vp_y="0 : 1000 : 0"
       inkscape:vp_x="0 : 526.18109 : 1"
       sodipodi:type="inkscape:persp3d" />
    <inkscape:perspective
       sodipodi:type="inkscape:persp3d"
       inkscape:vp_x="0 : 526.18109 : 1"
       inkscape:vp_y="0 : 1000 : 0"
       inkscape:vp_z="744.09448 : 526.18109 : 1"
       inkscape:persp3d-origin="372.04724 : 350.78739 : 1"
       id="perspective10-2" />
  </defs>
  <metadata
     id="metadata7">
    <rdf:RDF>
      <cc:Work
         rdf:about="">
        <dc:format>image/svg+xml</dc:format>
        <dc:type
           rdf:resource="http://purl.org/dc/dcmitype/StillImage" />
        <dc:title></dc:title>
      </cc:Work>
    </rdf:RDF>
  </metadata>
  <g
     transform="translate(0,2.988066e-5)"
     id="layer1"
     inkscape:groupmode="layer"
     inkscape:label="Layer 1">
    <g
       transform="matrix(0.19399665,0,0,0.19399665,898.06422,575.63475)"
       style="opacity:0.68387098;display:none"
       id="layer1-0"
       inkscape:label="fond">
      <image
         xlink:href="/home/gaston/GNU/fragile_6437_b.jpg"
         sodipodi:absref="/home/gaston/GNU/fragile_6437_b.jpg"
         width="399"
         height="394"
         id="image2449"
         x="175.5"
         y="335.36218" />
    </g>
    <path
       id="path8460"
       d=""
       style="fill:#888888;fill-opacity:1;stroke:none"
       inkscape:connector-curvature="0" />
    <path
       id="path8462"
       d=""
       style="fill:#888888;fill-opacity:1;stroke:none"
       inkscape:connector-curvature="0" />
    <path
       id="path8464"
       d=""
       style="fill:#888888;fill-opacity:1;stroke:none"
       inkscape:connector-curvature="0" />
    <g
       transform="matrix(0.50887296,0,0,0.50887296,837.12911,370.96871)"
       style="opacity:0.68387098;display:none"
       id="layer1-09"
       inkscape:label="fond">
      <image
         xlink:href="/home/gaston/GNU/fragile_6437_b.jpg"
         sodipodi:absref="/home/gaston/GNU/fragile_6437_b.jpg"
         width="399"
         height="394"
         id="image2449-8"
         x="175.5"
         y="335.36218" />
    </g>
    <path
       style="fill:none;stroke:#999898;stroke-width:1px;stroke-linecap:butt;stroke-linejoin:miter;stroke-opacity:1"
       d="M -0.7650443,789.43325 1485.0508,1011.8212"
       id="path7138"
       inkscape:connector-curvature="0"
       transform="translate(0,-2.988066e-5)"
       sodipodi:nodetypes="cc" />
    <g
       transform="matrix(2.5914001,0,0,2.5914001,-1205.6538,-957.03816)"
       id="g5649">
      <polygon
         points="352,431.495 352,351.495 352,347.686 352,275.305 360,286.733 360,351.486 398.301,371.71 401.084,412.447 "
         id="polygon3"
         transform="matrix(2.0000857,0,0,2.0000857,127.22104,-134.46818)"
         style="fill:#999898" />
      <g
         id="g5"
         transform="matrix(2.0000857,0,0,2.0000857,127.22104,-134.46818)">
        <polygon
           points="321,298.733 314,286.908 314,355.288 321,353.887 "
           id="polygon7"
           style="fill:#999898" />
        <polygon
           points="283.018,309.644 276.018,298.215 276,362.891 283.018,361.486 "
           id="polygon9"
           style="fill:#999898" />
        <polygon
           points="231.738,371.71 224.06,412.447 278,420.478 334.937,428.955 352,431.495 352,375.123 352,351.495 352,347.686 352,275.305 333,286.733 333,351.486 326,352.887 317,354.688 314,355.288 314,286.733 295,298.162 295,359.09 287,360.69 278,362.49 276,362.891 276,298.162 257,309.59 257,366.692 "
           id="polygon11"
           style="fill:#cecece" />
      </g>
      <polygon
         points="295,298.162 295,359.09 276,362.891 276,298.162 257,309.59 257,366.692 231.738,371.71 224.06,412.447 352,431.495 352,351.495 352,347.686 352,275.305 333,286.733 333,351.486 314,355.288 314,286.733 "
         id="polygon13"
         transform="matrix(2.0000857,0,0,2.0000857,127.22104,-134.46818)"
         style="fill:#61798f" />
    </g>
    <g
       transform="matrix(1.0767449,0.16941305,-0.16941305,1.0767449,-217.97029,-50.28723)"
       id="g5603">
      <path
         sodipodi:nodetypes="ccscscccsccsscccccccc"
         id="path3115"
         d="m 415.24633,613.33495 c -2.76204,3.24206 1.05433,6.54028 1.78381,9.58741 8.34416,11.51033 7.98922,29.33484 8.08935,40.88753 0.0344,3.97363 -2.95686,4.06796 -2.39987,8.07018 0.58888,4.13999 -2.21572,6.07541 -2.76329,9.51787 -1.02166,6.42297 -0.97598,13.8641 -1.13656,21.12361 1.50538,0.49986 0.45011,6.94287 1.95545,6.95847 8.3786,-0.41899 12.69416,-3.74015 17.54369,-6.67992 -0.81543,-4.10428 -1.77725,-10.29805 -2.72195,-17.07483 -0.75043,-5.38327 -2.55025,-10.79816 -3.40635,-14.68088 4.73768,10.54901 7.69102,29.28979 5.29262,40.6696 2.34222,0.71583 4.22663,0.84255 5.96772,0.54023 3.71311,-0.64476 6.77431,-3.24087 12.23378,-6.23572 1.8659,-1.02357 -0.95637,-3.62938 -0.37375,-4.61121 l -2.78559,-9.47099 -2.22845,-17.27065 c 0,-4.26489 -0.83568,-9.21227 -0.83568,-14.20648 l 0.83568,-17.27065 -5.29263,-16.99207 c 1.96573,-4.64792 2.76969,-8.9086 2.50704,-12.81371 -10.88607,-1.08206 -13.51233,3.53774 -32.26502,-0.0476 z"
         style="fill:#999898;fill-opacity:1;fill-rule:evenodd;stroke:#000000;stroke-width:0.27575913px;stroke-linecap:butt;stroke-linejoin:miter;stroke-opacity:1;display:inline"
         inkscape:connector-curvature="0" />
      <path
         sodipodi:nodetypes="cccsccscccccscccsccccccccccccscsccccccscsccssccccccccccccccsscccsscscccc"
         id="path3913"
         d="m 441.6506,536.98391 c -0.26985,-3.38153 -0.94273,-7.83296 0.49737,-11.05222 0.2765,-1.23685 -0.62978,-3.19366 0.74017,-4.13188 4.73927,-1.18559 15.80027,-4.31091 20.58893,-2.8354 1.84663,0.56899 -0.5018,2.468 -0.0222,4.99607 0.0615,1.06123 -0.43539,2.17238 -0.53699,3.78763 -0.84759,0.14518 8.26099,3.66419 0.008,1.7826 -1.75073,-0.39913 -5.0433,-0.68405 -6.43128,-0.70707 1.07281,0.71688 4.27453,0.71217 5.95037,1.32498 0.20752,0.62124 0.20724,1.77631 0.26293,2.39752 l 0.36338,1.63094 -0.68094,1.30068 c -0.006,0.82579 0.25517,1.19571 0.45719,1.59417 0.60268,1.18846 0.82261,1.89023 1.27473,3.12119 -0.23605,0.43816 -0.75395,0.97938 -1.12063,0.89483 l -2.51136,0.25461 c 0.3261,0.1424 1.02344,-0.21056 1.23796,0.2064 0.27908,0.54242 0.12634,1.905 0.35818,2.52574 l -1.08683,0.60287 -0.52477,1.55536 -0.44813,2.58309 c -3.28542,0.34739 -6.43916,-1.79582 -9.20826,-1.05974 -1.04624,-1.43655 -2.83676,-3.21444 -3.00338,-3.07184 l 2.88497,3.69599 c 1.61774,3.75417 2.70144,7.61863 3.35986,11.64891 0.10362,0.80548 0,11.03037 0,11.03037 -1.05724,3.76115 -2.12476,7.45001 -3.54549,8.66673 l 1.62207,21.81511 c -2.73666,1.7839 -8.58386,-11.17723 -9.32731,-10.4135 -0.76487,0.74788 -3.10888,0.32895 -2.7872,-1.39696 0.82732,-4.43852 -2.14509,-3.93243 -3.37848,-3.92146 -0.43198,-0.54909 0.45725,-1.39297 -0.0571,-2.03834 -1.06289,-1.33402 -1.46728,-3.46537 -2.93215,-5.36596 l 1.49623,2.30595 c 0.5525,1.98244 -0.42882,1.93082 0.98485,3.54546 l -0.39395,1.57578 c -0.47323,0.68889 1.93625,0.49911 3.47789,0.82169 1.13845,1.10057 0.0111,2.59394 -0.12938,3.51166 0,0 0.34477,1.20172 1.73691,1.53003 1.97021,0.46462 1.63345,2.66404 1.63345,2.66404 -0.0496,0.30959 0.10722,0.44955 0.28997,0.49025 1.28259,0.28565 1.71923,0.67859 2.05184,1.61875 -1.80507,4.0384 -4.00028,6.71172 -7.01926,9.53618 0,0 -5.02066,-6.62329 -5.59677,-5.95692 -0.22746,0.26293 -1.27999,-0.68044 -2.12986,-1.52554 -0.62301,-0.61955 -1.13705,-1.18629 -1.13705,-1.18629 l -6.16995,-6.49219 c 0.77988,1.43074 1.88206,2.60883 2.82928,3.87225 2.03305,2.86829 4.31185,5.16316 6.90184,6.73189 l 0.93126,2.94315 3.11775,1.13814 1.27351,3.10484 0.49922,1.62245 1.61852,0.55711 c 0.60354,0.23134 1.48565,0.88903 2.08919,-0.55711 1.31744,0.62831 2.05427,0.18397 2.92874,-0.26985 0.44387,-0.21056 1.43622,0.003 1.94885,-0.68172 0.59952,0.2452 1.11274,-0.3057 1.5179,-0.44121 0.42439,-1.38106 -0.002,-3.1025 -0.18701,-4.72729 0.38159,0.64343 0.75915,1.35463 1.39175,1.76464 0.56065,0.36339 0.53638,1.28645 0.88674,1.71203 0.74317,0.90273 1.82565,1.29279 3.18308,0.89253 l -0.99884,5.88729 c -5.64043,-0.68529 -19.11993,1.71065 -19.2369,-0.94663 -6.70677,-0.128 -13.27076,-0.42046 -18.13658,-1.58717 -1.74805,-0.41912 -3.15366,-1.00313 -4.70525,-1.54105 -0.7394,-0.25628 0.62845,-0.74367 -0.0731,-1.04641 0,0 7.49875,-31.38535 7.09096,-32.3032 -0.35142,-0.79099 4.8541,-20.90929 7.68185,-22.06073 1.78894,-7.15573 8.63598,-10.96766 14.37887,-14.37886 0.38768,-1.21663 0.50532,-1.87048 1.96972,-3.54547 z"
         style="opacity:0.98999999;fill:#999898;fill-opacity:1;fill-rule:evenodd;stroke:#000000;stroke-width:0.27575913px;stroke-linecap:butt;stroke-linejoin:miter;stroke-opacity:1;display:inline"
         inkscape:connector-curvature="0" />
      <path
         sodipodi:nodetypes="ccccccsccc"
         id="path3946"
         d="m 438.79442,713.14057 c -0.3077,1.6175 -1.10783,2.84105 -1.1201,4.26157 l 0.31822,1.01415 c 2.89441,1.76545 6.56644,0.67613 9.79736,0.6049 l 1.67136,-0.6218 c 13.89405,1.89403 18.66778,0.28022 18.94198,-3.06416 l -0.77099,-2.04549 c -0.72081,-1.91237 -4.53003,-1.52391 -9.53568,-1.85433 l -3.99831,-3.12883 c -6.70006,4.7737 -12.00238,6.45894 -15.30384,4.83399 z"
         style="fill:#999898;fill-opacity:1;fill-rule:evenodd;stroke:#000000;stroke-width:0.27575913px;stroke-linecap:butt;stroke-linejoin:miter;stroke-opacity:1;display:inline"
         inkscape:connector-curvature="0" />
      <path
         sodipodi:nodetypes="ccccccc"
         id="path3948"
         d="m 421.36061,710.63354 c -0.22164,1.59272 -0.32041,2.37906 0.47554,4.22618 5.72264,0.70765 10.39383,0.29429 15.86094,-0.27567 -0.19034,-0.43586 0.0535,-1.31243 0.32695,-1.64578 0.65418,-0.7975 -1.54128,-0.29421 -1.51036,-0.65964 l 0.2632,-7.00241 c -4.66329,2.70926 -10.1078,4.4109 -15.41632,5.35732 z"
         style="fill:#999898;fill-opacity:1;fill-rule:evenodd;stroke:#000000;stroke-width:0.27575913px;stroke-linecap:butt;stroke-linejoin:miter;stroke-opacity:1;display:inline"
         inkscape:connector-curvature="0" />
      <path
         inkscape:connector-curvature="0"
         id="path3950"
         d="m 510.9404,696.74182 c -5.51408,0 -9.98927,4.47519 -9.98927,9.98927 0,5.51408 4.4752,9.98926 9.98927,9.98927 5.51408,0 9.98927,-4.4752 9.98927,-9.98927 0,-5.51408 -4.47519,-9.98928 -9.98927,-9.98927 z m -0.18528,3.27068 c 3.60829,0 6.5333,2.92502 6.5333,6.53331 0,3.60829 -2.92501,6.54136 -6.5333,6.54136 -3.60829,-10e-6 -6.54136,-2.93308 -6.54136,-6.54136 0,-3.60829 2.93307,-6.53331 6.54136,-6.53331 z"
         style="opacity:0.98999999;fill:#999898;fill-opacity:1;fill-rule:nonzero;stroke:#ffffff;stroke-width:0;stroke-linecap:round;stroke-linejoin:round;stroke-miterlimit:4;stroke-opacity:1;stroke-dasharray:none;stroke-dashoffset:0" />
      <path
         d="m 383.39285,877.36218 c 0,6.90356 -5.59644,12.5 -12.5,12.5 -6.90356,0 -12.5,-5.59644 -12.5,-12.5 0,-6.90356 5.59644,-12.5 12.5,-12.5 6.90356,0 12.5,5.59644 12.5,12.5 z"
         sodipodi:ry="12.5"
         sodipodi:rx="12.5"
         sodipodi:cy="877.36218"
         sodipodi:cx="370.89285"
         id="path3961"
         style="opacity:0.98999999;fill:#999898;fill-opacity:1;fill-rule:nonzero;stroke:#ffffff;stroke-width:0;stroke-linecap:round;stroke-linejoin:round;stroke-miterlimit:4;stroke-opacity:1;stroke-dasharray:none;stroke-dashoffset:0"
         sodipodi:type="arc"
         transform="matrix(0.2577876,0,0,0.2577876,415.18842,480.46608)" />
      <path
         sodipodi:nodetypes="ccccccccccc"
         id="path3942"
         d="m 459.48938,618.95392 c -1.6152,1.61603 -2.18574,4.14614 -0.83568,8.35676 l 46.10147,70.75393 1.94991,-1.25354 -24.51318,-37.32685 3.86604,-2.71101 -1.352,-2.36776 -3.90682,2.711 -20.05624,-29.6665 c -1.48604,-3.64479 -1.54887,-5.37272 -0.0662,-6.7909 l -1.18737,-1.70513 z"
         style="fill:#999898;fill-opacity:1;fill-rule:evenodd;stroke:#000000;stroke-width:0.27575913px;stroke-linecap:butt;stroke-linejoin:miter;stroke-opacity:1;display:inline"
         inkscape:connector-curvature="0" />
      <path
         sodipodi:nodetypes="cccc"
         id="path3940"
         d="m 521.12049,709.90336 32.52174,-21.03119 -34.88947,25.13993 c 1.2796,-1.48565 1.8733,-2.20527 2.36773,-4.10874 z"
         style="fill:#999898;fill-opacity:1;fill-rule:evenodd;stroke:#000000;stroke-width:0.27575913px;stroke-linecap:butt;stroke-linejoin:miter;stroke-opacity:1;display:inline"
         inkscape:connector-curvature="0" />
      <path
         sodipodi:nodetypes="ccccc"
         id="path3944"
         d="m 449.56036,603.8329 c 0.42417,-2.04801 0.45437,-0.43193 0.68158,-0.1086 l 64.61097,93.3653 c -0.34717,-0.37982 -1.32792,-0.75511 -2.22846,-0.76606 z"
         style="fill:#999898;fill-opacity:1;fill-rule:evenodd;stroke:#000000;stroke-width:0.27575913px;stroke-linecap:butt;stroke-linejoin:miter;stroke-opacity:1;display:inline"
         inkscape:connector-curvature="0" />
      <g
         transform="matrix(2.6028185,-0.94933866,0.94933866,2.6028185,-709.48953,-1246.0812)"
         style="font-size:12px;font-style:normal;font-variant:normal;font-weight:bold;font-stretch:normal;text-align:start;line-height:100%;letter-spacing:0px;word-spacing:0px;writing-mode:lr-tb;text-anchor:start;fill:#61798f;fill-opacity:1;stroke:none;font-family:Courier;-inkscape-font-specification:Courier Bold"
         id="text3980">
        <path
           inkscape:connector-curvature="0"
           d="m 180.40202,791.7347 0.42,0.936 1.74,-0.78 0,5.388 -2.016,0 0,0.984 5.052,0 0,-0.984 -1.992,0 0,-6.684 -0.648,0 -2.556,1.14"
           id="path4174"
           style="fill:#61798f" />
      </g>
      <text
         xml:space="preserve"
         style="font-size:33.24651337px;font-style:normal;font-variant:normal;font-weight:bold;font-stretch:normal;text-align:start;line-height:100%;letter-spacing:0px;word-spacing:0px;writing-mode:lr-tb;text-anchor:start;fill:#61798f;fill-opacity:1;stroke:none;font-family:Courier;-inkscape-font-specification:Courier Bold"
         x="508.80692"
         y="691.39795"
         id="text4013"
         sodipodi:linespacing="100%"><tspan
           sodipodi:role="line"
           id="tspan4015"
           x="508.80692"
           y="691.39795">1</tspan></text>
      <g
         transform="matrix(1.9134548,-2.0036463,2.0036463,1.9134548,-709.48953,-1246.0812)"
         style="font-size:12px;font-style:normal;font-variant:normal;font-weight:bold;font-stretch:normal;text-align:start;line-height:100%;letter-spacing:0px;word-spacing:0px;writing-mode:lr-tb;text-anchor:start;fill:#61798f;fill-opacity:1;stroke:none;font-family:Courier;-inkscape-font-specification:Courier Bold"
         id="text4013-1">
        <path
           inkscape:connector-curvature="0"
           d="m -184.86907,770.89204 0.42,0.936 1.74,-0.78 0,5.388 -2.016,0 0,0.984 5.052,0 0,-0.984 -1.992,0 0,-6.684 -0.648,0 -2.556,1.14"
           id="path4159"
           style="fill:#61798f" />
      </g>
      <g
         transform="matrix(0.31261133,2.7528498,-2.7528498,0.31261133,-709.48953,-1246.0812)"
         style="font-size:12px;font-style:normal;font-variant:normal;font-weight:bold;font-stretch:normal;text-align:start;line-height:100%;letter-spacing:0px;word-spacing:0px;writing-mode:lr-tb;text-anchor:start;fill:#61798f;fill-opacity:1;stroke:none;font-family:Courier;-inkscape-font-specification:Courier Bold"
         id="text4013-5">
        <path
           inkscape:connector-curvature="0"
           d="m 717.55864,-354.06355 0.42,0.936 1.74,-0.78 0,5.388 -2.016,0 0,0.984 5.052,0 0,-0.984 -1.992,0 0,-6.684 -0.648,0 -2.556,1.14"
           id="path4165"
           style="fill:#61798f" />
      </g>
      <g
         style="font-size:12px;font-style:normal;font-variant:normal;font-weight:bold;font-stretch:normal;text-align:start;line-height:100%;letter-spacing:0px;word-spacing:0px;writing-mode:lr-tb;text-anchor:start;fill:#61798f;fill-opacity:1;stroke:none;font-family:Courier;-inkscape-font-specification:Courier Bold"
         id="text4013-59"
         transform="matrix(2.7705429,0,0,2.7705429,-709.48953,-1246.0812)">
        <path
           inkscape:connector-curvature="0"
           d="m 432.86802,671.63686 0.42,0.936 1.74,-0.78 0,5.388 -2.016,0 0,0.984 5.052,0 0,-0.984 -1.992,0 0,-6.684 -0.648,0 -2.556,1.14"
           id="path4168"
           style="fill:#61798f" />
      </g>
      <g
         transform="matrix(-1.5337969,-2.307244,2.307244,-1.5337969,-709.48953,-1246.0812)"
         style="font-size:12px;font-style:normal;font-variant:normal;font-weight:bold;font-stretch:normal;text-align:start;line-height:100%;letter-spacing:0px;word-spacing:0px;writing-mode:lr-tb;text-anchor:start;fill:#61798f;fill-opacity:1;stroke:none;font-family:Courier;-inkscape-font-specification:Courier Bold"
         id="text4013-55">
        <path
           inkscape:connector-curvature="0"
           d="m -814.63991,-17.8317 0.42,0.936 1.74,-0.78 0,5.388 -2.016,0 0,0.984 5.052,0 0,-0.984 -1.992,0 0,-6.684 -0.648,0 -2.556,1.14"
           id="path4183"
           style="fill:#61798f" />
      </g>
      <g
         transform="matrix(2.6459782,-0.82140571,0.82140571,2.6459782,-709.48953,-1246.0812)"
         style="font-size:12px;font-style:normal;font-variant:normal;font-weight:bold;font-stretch:normal;text-align:start;line-height:100%;letter-spacing:0px;word-spacing:0px;writing-mode:lr-tb;text-anchor:start;fill:#61798f;fill-opacity:1;stroke:none;font-family:Courier;-inkscape-font-specification:Courier Bold"
         id="text4013-75">
        <path
           inkscape:connector-curvature="0"
           d="m 209.53704,762.64418 0.42,0.936 1.74,-0.78 0,5.388 -2.016,0 0,0.984 5.052,0 0,-0.984 -1.992,0 0,-6.684 -0.648,0 -2.556,1.14"
           id="path4162"
           style="fill:#61798f" />
      </g>
      <g
         transform="matrix(2.1210446,1.782436,-1.782436,2.1210446,-709.48953,-1246.0812)"
         inkscape:transform-center-x="-2.9841547"
         inkscape:transform-center-y="-6.8575391"
         style="font-size:12px;font-style:normal;font-variant:normal;font-weight:bold;font-stretch:normal;text-align:start;line-height:100%;letter-spacing:0px;word-spacing:0px;writing-mode:lr-tb;text-anchor:start;fill:#61798f;fill-opacity:1;stroke:none;font-family:Courier;-inkscape-font-specification:Courier Bold"
         id="text4013-90">
        <path
           inkscape:connector-curvature="0"
           d="m 790.04118,243.9767 0.42,0.936 1.74,-0.78 0,5.388 -2.016,0 0,0.984 5.052,0 0,-0.984 -1.992,0 0,-6.684 -0.648,0 -2.556,1.14"
           id="path4192"
           style="fill:#61798f" />
      </g>
      <g
         style="font-size:12px;font-style:normal;font-variant:normal;font-weight:bold;font-stretch:normal;text-align:start;line-height:100%;letter-spacing:0px;word-spacing:0px;writing-mode:lr-tb;text-anchor:start;fill:#61798f;fill-opacity:1;stroke:none;font-family:Courier;-inkscape-font-specification:Courier Bold"
         id="text4013-4"
         transform="matrix(2.7705429,0,0,2.7705429,-709.48953,-1246.0812)">
        <path
           inkscape:connector-curvature="0"
           d="m 449.66182,692.59749 0.42,0.936 1.74,-0.78 0,5.388 -2.016,0 0,0.984 5.052,0 0,-0.984 -1.992,0 0,-6.684 -0.648,0 -2.556,1.14"
           id="path4195"
           style="fill:#61798f" />
      </g>
      <g
         transform="matrix(2.7624504,0.21160213,-0.21160213,2.7624504,-709.48953,-1246.0812)"
         style="font-size:12px;font-style:normal;font-variant:normal;font-weight:bold;font-stretch:normal;text-align:start;line-height:100%;letter-spacing:0px;word-spacing:0px;writing-mode:lr-tb;text-anchor:start;fill:#61798f;fill-opacity:1;stroke:none;font-family:Courier;-inkscape-font-specification:Courier Bold"
         id="text4119">
        <path
           inkscape:connector-curvature="0"
           d="m 491.52932,637.16373 c -2.136,0 -2.436,2.448 -2.436,3.912 0,1.43999 0.288,3.924 2.436,3.924 2.16,0 2.436,-2.48401 2.436,-3.924 0,-1.452 -0.288,-3.912 -2.436,-3.912 m 0,0.996 c 1.224,0 1.344,1.932 1.344,2.916 0,0.9 -0.096,2.928 -1.344,2.928 -1.2,0 -1.344,-1.908 -1.344,-2.928 0,-1.032 0.192,-2.04 0.48,-2.448 0.312,-0.42 0.696,-0.468 0.864,-0.468"
           id="path4180"
           style="fill:#61798f" />
      </g>
      <g
         transform="matrix(1.9671471,1.9509588,-1.9509588,1.9671471,-709.48953,-1246.0812)"
         style="font-size:12px;font-style:normal;font-variant:normal;font-weight:bold;font-stretch:normal;text-align:start;line-height:100%;letter-spacing:0px;word-spacing:0px;writing-mode:lr-tb;text-anchor:start;fill:#61798f;fill-opacity:1;stroke:none;font-family:Courier;-inkscape-font-specification:Courier Bold"
         id="text4123">
        <path
           inkscape:connector-curvature="0"
           d="m 798.45114,176.9467 c -2.136,0 -2.436,2.448 -2.436,3.912 0,1.44 0.288,3.924 2.436,3.924 2.15999,0 2.436,-2.484 2.436,-3.924 0,-1.452 -0.28801,-3.912 -2.436,-3.912 m 0,0.996 c 1.22399,0 1.344,1.932 1.344,2.916 0,0.9 -0.096,2.928 -1.344,2.928 -1.2,0 -1.344,-1.908 -1.344,-2.928 0,-1.032 0.192,-2.04 0.48,-2.448 0.31199,-0.42 0.696,-0.468 0.864,-0.468"
           id="path4186"
           style="fill:#61798f" />
      </g>
      <g
         transform="matrix(0.4942162,2.7261068,-2.7261068,0.4942162,-709.48953,-1246.0812)"
         style="font-size:12px;font-style:normal;font-variant:normal;font-weight:bold;font-stretch:normal;text-align:start;line-height:100%;letter-spacing:0px;word-spacing:0px;writing-mode:lr-tb;text-anchor:start;fill:#61798f;fill-opacity:1;stroke:none;font-family:Courier;-inkscape-font-specification:Courier Bold"
         id="text4127">
        <path
           inkscape:connector-curvature="0"
           d="m 758.65865,-321.47443 c -2.13599,0 -2.436,2.448 -2.436,3.912 0,1.44 0.28801,3.924 2.436,3.924 2.16,0 2.436,-2.484 2.436,-3.924 0,-1.452 -0.288,-3.912 -2.436,-3.912 m 0,0.996 c 1.224,0 1.344,1.932 1.344,2.916 0,0.9 -0.096,2.928 -1.344,2.928 -1.19999,0 -1.344,-1.908 -1.344,-2.928 0,-1.032 0.19201,-2.04 0.48,-2.448 0.312,-0.42 0.696,-0.468 0.864,-0.468"
           id="path4189"
           style="fill:#61798f" />
      </g>
      <g
         transform="matrix(-1.1652355,2.5135899,-2.5135899,-1.1652355,-709.48953,-1246.0812)"
         style="font-size:12px;font-style:normal;font-variant:normal;font-weight:bold;font-stretch:normal;text-align:start;line-height:100%;letter-spacing:0px;word-spacing:0px;writing-mode:lr-tb;text-anchor:start;fill:#61798f;fill-opacity:1;stroke:none;font-family:Courier;-inkscape-font-specification:Courier Bold"
         id="text4143">
        <path
           inkscape:connector-curvature="0"
           d="m 435.84927,-683.38345 c -2.136,0 -2.436,2.448 -2.436,3.912 0,1.43999 0.288,3.924 2.436,3.924 2.16,0 2.436,-2.48401 2.436,-3.924 0,-1.452 -0.288,-3.912 -2.436,-3.912 m 0,0.996 c 1.224,0 1.344,1.932 1.344,2.916 0,0.89999 -0.096,2.928 -1.344,2.928 -1.2,0 -1.344,-1.90801 -1.344,-2.928 0,-1.032 0.192,-2.04 0.48,-2.448 0.312,-0.42 0.696,-0.468 0.864,-0.468"
           id="path4171"
           style="fill:#61798f" />
      </g>
      <g
         transform="matrix(2.4753609,1.244386,-1.244386,2.4753609,-709.48953,-1246.0812)"
         style="font-size:12px;font-style:normal;font-variant:normal;font-weight:bold;font-stretch:normal;text-align:start;line-height:100%;letter-spacing:0px;word-spacing:0px;writing-mode:lr-tb;text-anchor:start;fill:#61798f;fill-opacity:1;stroke:none;font-family:Courier;-inkscape-font-specification:Courier Bold"
         id="text4147">
        <path
           inkscape:connector-curvature="0"
           d="m 693.3005,397.62613 c -2.136,0 -2.436,2.448 -2.436,3.912 0,1.44 0.288,3.924 2.436,3.924 2.16,0 2.436,-2.484 2.436,-3.924 0,-1.452 -0.288,-3.912 -2.436,-3.912 m 0,0.996 c 1.224,0 1.344,1.932 1.344,2.916 0,0.9 -0.096,2.928 -1.344,2.928 -1.2,0 -1.344,-1.908 -1.344,-2.928 0,-1.032 0.192,-2.04 0.48,-2.448 0.312,-0.42 0.696,-0.468 0.864,-0.468"
           id="path4177"
           style="fill:#61798f" />
      </g>
      <g
         transform="matrix(2.7552976,0.29024673,-0.29024673,2.7552976,-709.48953,-1246.0812)"
         style="font-size:12px;font-style:normal;font-variant:normal;font-weight:bold;font-stretch:normal;text-align:start;line-height:100%;letter-spacing:0px;word-spacing:0px;writing-mode:lr-tb;text-anchor:start;fill:#61798f;fill-opacity:1;stroke:none;font-family:Courier;-inkscape-font-specification:Courier Bold"
         id="text4151">
        <path
           inkscape:connector-curvature="0"
           d="m 492.06106,617.42282 c -2.136,0 -2.436,2.448 -2.436,3.912 0,1.44 0.288,3.924 2.436,3.924 2.16,0 2.436,-2.484 2.436,-3.924 0,-1.452 -0.288,-3.912 -2.436,-3.912 m 0,0.996 c 1.224,0 1.344,1.932 1.344,2.916 0,0.9 -0.096,2.928 -1.344,2.928 -1.2,0 -1.344,-1.908 -1.344,-2.928 0,-1.032 0.192,-2.04 0.48,-2.448 0.312,-0.42 0.696,-0.468 0.864,-0.468"
           id="path4156"
           style="fill:#61798f" />
      </g>
    </g>
    <path
       inkscape:connector-curvature="0"
       style="fill:#999898;fill-opacity:1;fill-rule:evenodd;stroke:#000000;stroke-width:0.74404287px;stroke-linecap:butt;stroke-linejoin:miter;stroke-opacity:1"
       d="m 1314.2693,728.37498 c 0.6811,-1.22675 -0.4159,-5.53416 -1.3713,-8.14545 -0.6448,-3.59987 0.4715,-4.20201 1.4667,-5.0105 l 18.842,-8.52095 c 6.0797,-1.86653 8.716,0.11684 10.8252,2.68965 2.2593,2.47796 4.7557,5.20635 6.7094,7.36157 0.7685,2.80915 2.8679,4.53931 1.3423,9.20799 l 2.5828,12.43197 -12.5689,12.41479 c -2.0173,1.77355 -4.0769,3.6492 2.9146,0.34584 l 9.5267,-8.1121 c 0,0 0.747,2.88757 1.4881,3.89537 2.7675,3.76349 11.8308,9.62883 11.8308,9.62883 1.715,2.29287 2.6331,4.56386 4.3482,6.85674 0.827,0.92596 1.195,2.97222 2.2593,4.22366 1.794,6.18083 5.1194,11.72728 5.5386,17.89762 0.6103,8.98614 4.8086,19.78737 3.6557,29.67247 l -1.3906,11.92416 c -0.2303,1.97429 -2.3618,3.17221 -4.3741,4.39903 l -24.3399,5.4459 c -3.3536,1.14284 -4.6155,3.05926 0.2109,1.99951 l 24.1999,-5.18392 c 1.2935,2.89087 1.0141,9.81392 -0.9034,13.4687 -4.6032,13.10692 -13.9712,21.18024 -21.7158,30.96849 -1.2685,2.3258 -2.0521,4.8282 -4.2825,6.80377 l -13.9557,29.25875 c -7.935,15.96875 -11.4256,30.10659 -16.4146,44.86174 l -2.3453,3.12556 -0.2606,4.64487 c -0.6492,0.35913 -1.3196,1.48204 -1.9555,1.35975 l -14.2223,-2.73427 c -4.3821,0.55262 -9.1252,4.58487 -13.5168,5.49163 -6.8138,-0.47444 -13.6991,-0.78369 -19.7818,-2.94996 -5.2976,-3.24446 -4.731,-6.72537 -1.124,-7.47409 l 14.7044,-3.05211 c 3.2256,-0.37466 4.8992,-5.84538 8.1384,-6.71883 3.0778,0.79572 6.0804,2.68735 8.6549,2.71877 6.7618,0.0825 1.8809,-3.00606 2.5779,-1.47214 7.913,2.7226 -8.2564,-1.79767 -13.0137,-3.39148 0,0 -0.179,-1.07577 1.018,-2.06543 2.2497,-1.86008 6.6966,-4.49902 7.5973,-6.73629 10.8957,-27.06566 33.6019,-85.39415 35.246,-83.1675 0.1652,-4.52792 -0.7015,-2.07407 -1.6938,-1.24274 l -6.4742,13.11375 1.9522,-32.37762 5.5709,0.41876 c -3.1007,-1.28213 -6.3144,-2.45738 -7.4176,-5.63034 14.8412,-15.17089 21.5294,-24.23459 30.8022,-37.0068 6.9083,-7.18653 1.227,-3.71184 1.016,-3.74487 -10.9449,14.16485 -21.1521,28.85132 -34.8872,41.04336 l -9.3667,11.97103 -3.7918,2.5542 -4.0033,10.25747 c -4.6981,0.0693 -9.4002,0.27594 -14.0418,-1.71464 0.024,-1.47053 -1.6472,-2.77609 0.9208,-4.49382 l 2.522,-4.7157 c -0.095,-0.86385 0.9088,-2.20934 -0.4009,-2.71858 -2.6009,-1.01112 -6.0992,-2.61461 -8.441,-4.43572 -3.0267,-1.60473 -3.6433,-2.82757 1.4157,-3.15109 l 7.4157,1.00106 9.621,-1.86251 -0.9823,-2.9511 1.1282,-2.3615 20.1493,-27.09315 c 0,0 1.2126,-15.119 0.9761,-16.18881 -0.2364,-1.06981 -2.948,10.55227 -2.948,10.55227 l -12.7034,7.62615 c -5.6584,5.27603 -10.5522,11.74843 -16.1713,15.58433 0,0 -0.9313,1.23213 -2.1071,1.45864 -1.1758,0.22654 -5.2834,-1.20835 -5.2834,-1.20835 l -5.9387,3.29275 -21.6461,-15.21486 c 4.5223,-1.54775 6.8913,0.84614 10.5814,1.88545 l 8.3001,-2.16461 c 1.2804,-3.53152 4.5764,-4.57658 7.8637,-5.63237 8.059,-8.84704 9.7597,-8.49526 15.2399,-12.87312 l 15.7638,-12.59291 c 1.8346,-2.49373 4.1418,-7.55254 9.2048,-10.91214 l 3.3496,-0.97137 0.1021,-3.71882 -2.398,0.2 c -1.7336,0.63885 -1.1555,-4.9972 -2.2594,-4.84696 -0.084,0.0109 -0.6681,-1.68095 -1.4578,-3.16001 -0.6137,-1.14959 -1.3514,-2.17032 -2.0742,-2.16209 -2.6479,0.0301 -4.6388,-0.38202 -4.3692,-2.20513 l 0.8355,-6.22405 1.1063,-1.5646 c 0,0 -1.4001,-1.22978 -1.5392,-2.03599 -0.139,-0.8062 0.8734,-2.76723 0.8734,-2.76723 0,0 -1.3727,-2.03415 -0.3039,-2.46115 18.1924,-7.26901 -0.5195,-1.35589 -1.0512,-1.43059 -1.3521,-0.18995 -11.6476,2.28997 -11.3294,1.15106 -0.4349,-1.65123 6.814,-3.09151 10.2288,-4.63705 z"
       id="path2474"
       sodipodi:nodetypes="cccccccccccscccssscccccccccccccccsccsccsscccccccccccccccscccccccsccczccccccssccccsssccczcsscc" />
    <path
       inkscape:connector-curvature="0"
       style="fill:#999898;fill-opacity:1;fill-rule:evenodd;stroke:#000000;stroke-width:0.74404287px;stroke-linecap:butt;stroke-linejoin:miter;stroke-opacity:1"
       d="m 1323.3399,964.18209 c 4.1493,0.63089 7.661,2.16372 12.7415,1.4776 l 0.2931,3.01556 13.1428,0.54877 0.5793,-5.74666 c 1.091,-0.44478 3.1912,-3.61227 1.7927,-7.4686 0.6234,-11.09263 -0.1288,-47.58834 0.7792,-67.33735 -10.3627,16.31807 -15.9517,33.84085 -21.3277,49.28602 -1.6154,4.64115 -3.7416,8.77893 -5.2085,13.51935 l -2.7924,12.70531 z"
       id="path3246"
       sodipodi:nodetypes="cccccccscc" />
    <path
       inkscape:connector-curvature="0"
       style="fill:#61798f;fill-opacity:1;fill-rule:evenodd;stroke:#000000;stroke-width:0.74404287px;stroke-linecap:butt;stroke-linejoin:miter;stroke-opacity:1"
       d="m 1195.1045,772.55714 c -1.0195,0.0457 -1.7852,0.7013 -2.2661,2.05447 l -76.4477,131.8795 c -0.6315,2.02067 -2.0294,3.49827 -0.7241,6.88837 l 8.9056,43.32218 c 1.0363,1.09276 1.6453,2.02774 4.6859,3.85026 l 99.0132,34.07274 4.3261,-2.53289 80.774,-134.41239 c -1.017,-0.48175 -1.1326,-3.41453 -1.4198,-5.90053 l -26.3574,-27.82157 -85.3328,-48.60692 c -2.1133,-1.88905 -3.8461,-2.85197 -5.1569,-2.79322 z m 9.8211,7.43372 78.2164,46.01576 5.7257,4.94876 2.0277,3.24231 2.4304,-1.25911 16.4728,19.31614 1.2662,2.17469 -7.6276,-2.60517 -0.3067,1.85238 6.2957,2.82448 -1.1495,2.89922 -76.8509,127.07685 c -1.4697,1.89124 -2.8923,1.94783 -4.3044,1.74264 l -96.9493,-32.15527 1.6918,-3.16344 83.8479,-139.63131 3.4545,-0.44015 68.4502,34.04783 1.4053,-2.8922 -70.777,-35.71664 -1.245,-2.9417 -13.9707,-24.03903 1.8965,-1.29704 z m -9.3162,0.44206 c 0.9339,0.0256 2.0902,0.96452 2.0902,0.96452 l 14.4975,24.33264 c 0.5541,1.57736 0.7219,3.33472 -0.1531,5.57821 l -81.8864,135.96354 c -2.5042,3.93377 -2.9189,0.34607 -3.976,-0.9 l -6.1672,-36.31549 1.2153,-5.29319 c 0.5313,0.0146 72.7532,-122.9394 73.5792,-123.98004 0.2065,-0.26016 0.4892,-0.35874 0.8005,-0.35019 z"
       id="path3249" />
    <g
       transform="matrix(0,-0.72677363,0.72677363,0,112.31848,390.52458)"
       id="text5763"
       style="font-size:268.45642090000001190px;font-style:normal;font-variant:normal;font-weight:normal;font-stretch:normal;text-align:start;line-height:100%;letter-spacing:0px;word-spacing:0px;writing-mode:lr-tb;text-anchor:start;fill:#999898;fill-opacity:1;stroke:none;font-family:Courier;-inkscape-font-specification:Courier">
      <path
         inkscape:connector-curvature="0"
         id="path6676"
         style="font-family:Galaxy Monkey;-inkscape-font-specification:Galaxy Monkey;fill:#999898"
         d="m -584.83989,458.60552 c 0,0 16.28899,-104.44111 16.28899,-104.44111 0,0 206.07112,42.42641 206.07112,42.42641 0,0 21.45608,103.87465 21.45608,103.87465 0,0 -243.81619,-41.85995 -243.81619,-41.85995 m 44.35174,-38.37889 c 0,0 155.87402,29.06822 155.87402,29.06822 0,0 -6.40559,-41.34943 -6.40559,-41.34943 0,0 -145.61287,-29.13105 -145.61287,-29.13105 0,0 -3.85556,41.41226 -3.85556,41.41226" />
      <path
         inkscape:connector-curvature="0"
         id="path6678"
         style="font-family:Galaxy Monkey;-inkscape-font-specification:Galaxy Monkey;fill:#999898"
         d="m -615.30691,653.95289 c 0,0 26.30126,-168.63749 26.30126,-168.63749 0,0 253.38361,41.30099 253.38361,41.30099 0,0 33.32811,161.35036 33.32811,161.35036 0,0 -136.45333,-14.82784 -136.45333,-14.82784 0,0 -32.31426,-27.20147 -32.31426,-27.20147 0,0 -32.28553,20.18167 -32.28553,20.18167 0,0 -111.95986,-12.16622 -111.95986,-12.16622 m 166.79542,-54.57293 c 0,0 88.9777,11.81361 88.9777,11.81361 0,0 -9.89807,-63.89404 -9.89807,-63.89404 0,0 -81.96098,-12.62845 -81.96098,-12.62845 0,0 2.88135,64.70888 2.88135,64.70888 m -105.19345,-13.96659 c 0,0 58.64464,7.78628 58.64464,7.78628 0,0 0.94719,-65.11086 0.94719,-65.11086 0,0 -53.66783,-8.26908 -53.66783,-8.26908 0,0 -5.924,65.59366 -5.924,65.59366" />
      <path
         inkscape:connector-curvature="0"
         id="path6680"
         style="fill:#999898;font-family:Galaxy Monkey;-inkscape-font-specification:Galaxy Monkey"
         d="m -671.58647,1014.8042 49.37935,-316.60881 127.80803,12.08555 -0.55753,46.76807 -76.32704,-6.05054 -11.12714,119.51557 108.22013,4.44221 -1.45245,-163.27023 181.80414,17.21346 55.73365,303.07552 -144.4511,-13.2493 -11.39571,-141.47579 76.12216,3.15036 -17.20516,-111.06286 -87.24446,-6.92766 14.22103,258.04495 -263.5279,-5.6505"
         sodipodi:nodetypes="ccccccccccccccccc" />
    </g>
    <path
       style="fill:#ffffff;stroke:#ffffff;stroke-width:1px;stroke-linecap:butt;stroke-linejoin:miter;stroke-opacity:1"
       d="m 1200,786.82644 2.4261,38.90505 -5.6422,9.2136 -43.391,17.59564 42.2059,-71.20853 1.333,0.56635 z"
       id="path7140"
       inkscape:connector-curvature="0"
       sodipodi:nodetypes="ccccccc" />
    <path
       style="fill:#ffffff;stroke:#ffffff;stroke-width:1px;stroke-linecap:butt;stroke-linejoin:miter;stroke-opacity:1"
       d="m 1241.116,968.56754 -4.9552,8.52679 -93.9746,-17.94643 -9.8233,-3.36223 44.6014,-1.10206 z"
       id="path7142"
       inkscape:connector-curvature="0"
       transform="translate(0,-2.988066e-5)"
       sodipodi:nodetypes="cccccc" />
  </g>
</svg>
