<?xml version="1.0" encoding="UTF-8" standalone="no"?>
<!-- Generator: Adobe Illustrator 15.0.2, SVG Export Plug-In . SVG Version: 6.00 Build 0)  -->

<svg
   xmlns:dc="http://purl.org/dc/elements/1.1/"
   xmlns:cc="http://creativecommons.org/ns#"
   xmlns:rdf="http://www.w3.org/1999/02/22-rdf-syntax-ns#"
   xmlns:svg="http://www.w3.org/2000/svg"
   xmlns="http://www.w3.org/2000/svg"
   xmlns:sodipodi="http://sodipodi.sourceforge.net/DTD/sodipodi-0.dtd"
   xmlns:inkscape="http://www.inkscape.org/namespaces/inkscape"
   version="1.1"
   id="Ebene_1"
   x="0px"
   y="0px"
   width="726.42224"
   height="332.39337"
   viewBox="0 0 726.42224 332.39337"
   enable-background="new 0 0 1024 768"
   xml:space="preserve"
   inkscape:version="0.48.3.1 r9886"
   sodipodi:docname="obs-logo.svg"
   inkscape:export-filename="/home/hvogel/Development/Web/obs-landing/images/obs-logo.png"
   inkscape:export-xdpi="30.959999"
   inkscape:export-ydpi="30.959999"><metadata
   id="metadata35"><rdf:RDF><cc:Work
       rdf:about=""><dc:format>image/svg+xml</dc:format><dc:type
         rdf:resource="http://purl.org/dc/dcmitype/StillImage" /><dc:title></dc:title></cc:Work></rdf:RDF></metadata><defs
   id="defs33" /><sodipodi:namedview
   pagecolor="#ffffff"
   bordercolor="#666666"
   borderopacity="1"
   objecttolerance="10"
   gridtolerance="10"
   guidetolerance="10"
   inkscape:pageopacity="0"
   inkscape:pageshadow="2"
   inkscape:window-width="1680"
   inkscape:window-height="991"
   id="namedview31"
   showgrid="false"
   fit-margin-top="10"
   fit-margin-left="10"
   fit-margin-right="10"
   fit-margin-bottom="10"
   inkscape:zoom="0.61458333"
   inkscape:cx="436.82806"
   inkscape:cy="119.8314"
   inkscape:window-x="0"
   inkscape:window-y="27"
   inkscape:window-maximized="1"
   inkscape:current-layer="Ebene_1" />
<polygon
   points="352,431.495 352,351.495 352,347.686 352,275.305 360,286.733 360,351.486 398.301,371.71 401.084,412.447 "
   id="polygon3"
   transform="matrix(2.0000857,0,0,2.0000857,-438.1392,-540.63359)"
   style="fill:#999898" />
<g
   id="g5"
   transform="matrix(2.0000857,0,0,2.0000857,-438.1392,-540.63359)">
	<polygon
   points="321,298.733 314,286.908 314,355.288 321,353.887 "
   id="polygon7"
   style="fill:#999898" />
	<polygon
   points="283.018,309.644 276.018,298.215 276,362.891 283.018,361.486 "
   id="polygon9"
   style="fill:#999898" />
	<polygon
   points="352,347.686 352,275.305 333,286.733 333,351.486 326,352.887 317,354.688 314,355.288 314,286.733 295,298.162 295,359.09 287,360.69 278,362.49 276,362.891 276,298.162 257,309.59 257,366.692 231.738,371.71 224.06,412.447 278,420.478 334.937,428.955 352,431.495 352,375.123 352,351.495 "
   id="polygon11"
   style="fill:#cecece" />
</g>
<polygon
   points="295,298.162 295,359.09 276,362.891 276,298.162 257,309.59 257,366.692 231.738,371.71 224.06,412.447 352,431.495 352,351.495 352,347.686 352,275.305 333,286.733 333,351.486 314,355.288 314,286.733 "
   id="polygon13"
   transform="matrix(2.0000857,0,0,2.0000857,-438.1392,-540.63359)"
   style="fill:#61798f" />
<g
   id="g15"
   transform="matrix(2.0000857,0,0,2.0000857,-438.1392,-540.63359)">
	<path
   d="m 489.742,309.133 h -22.068 v 21.42 h 4.32 v -17.28 h 9.107 v 17.28 h 8.641 v -21.42 z m -43.812,8.496 v -4.356 h 9.108 v 4.356 h -9.108 z m 17.748,6.048 h -8.64 v 2.916 h -9.108 v -4.824 h 17.748 V 309.133 H 441.61 v 21.42 h 22.067 v -6.876 z m -43.775,2.736 v -13.32 h 9.108 v 13.32 h -9.108 z m 17.748,-17.28 h -22.068 v 25.74 h 4.32 v -4.32 h 17.748 v -21.42 z m -43.992,17.46 v -13.32 h 9.107 v 13.32 h -9.107 z m 17.748,-17.46 h -22.068 v 21.42 h 22.068 v -21.42 z"
   id="path17"
   inkscape:connector-curvature="0"
   style="fill:#cedbd1" />
	<path
   d="m 497.805,369.793 v -13.32 h 9.108 v 13.32 h -9.108 z m 17.748,-21.78 h -8.64 v 4.32 h -13.429 v 21.42 h 22.068 v -25.74 z m -26.208,0.036 -8.28,-0.036 v 25.74 h 8.28 v -25.704 z m -12.924,4.284 h -8.279 v 21.42 h 8.279 v -21.42 z m 0,-4.32 h -8.279 v 2.664 h 8.279 v -2.664 z m -12.851,4.32 h -8.64 v 17.28 h -9.108 v -17.28 h -4.32 v 21.42 h 22.068 v -21.42 z m -43.883,17.46 v -13.32 h 9.107 v 13.32 h -9.107 z m 17.748,-17.46 h -17.748 v -4.32 h -4.32 v 25.74 h 22.068 v -21.42 z"
   id="path19"
   inkscape:connector-curvature="0"
   style="fill:#cedbd1" />
	<path
   d="m 559.508,404.028 v -4.355 h 9.108 v 4.355 h -9.108 z m 17.748,6.048 h -8.64 v 2.916 h -9.108 v -4.823 h 17.748 v -12.637 h -22.067 v 21.421 h 22.067 v -6.877 z m -25.524,-1.8 h -8.64 v 4.716 h -9.108 v -13.319 h 9.108 v 4.896 h 8.64 v -9.036 h -22.067 v 21.421 h 22.067 v -8.678 z m -25.883,-12.744 h -8.279 v 21.421 h 8.279 v -21.421 z m 0,-4.319 h -8.279 v 2.664 h 8.279 v -2.664 z m -12.277,4.319 h -8.64 v 15.801 l -9.107,-7.423 v -8.378 h -4.32 v 10.476 l 13.428,10.945 h 8.64 v -21.421 z m -25.127,0 h -22.068 v 21.421 h 4.32 v -17.28 h 9.108 v 4.896 h 8.64 v -9.037 z m -42.696,8.496 v -4.355 h 9.108 v 4.355 h -9.108 z m 17.748,6.048 h -8.64 v 2.916 h -9.108 v -4.823 h 17.748 V 395.532 H 441.43 v 21.421 h 22.067 v -6.877 z m -25.955,-14.544 h -22.067 v 12.601 h 13.428 v 4.68 h -9.216 v -3.456 h -4.212 v 7.597 h 22.067 v -12.78 h -17.748 v -4.5 h 9.108 v 3.275 h 8.64 v -7.417 z"
   id="path21"
   inkscape:connector-curvature="0"
   style="fill:#cedbd1" />
</g>
<g
   id="g23"
   transform="matrix(2.0000857,0,0,2.0000857,-438.1392,-540.63359)">
	<path
   d="m 485.743,305.133 h -22.068 v 21.42 h 4.32 v -17.28 h 9.107 v 17.28 h 8.641 v -21.42 z m -43.812,8.496 v -4.356 h 9.108 v 4.356 h -9.108 z m 17.748,6.048 h -8.64 v 2.916 h -9.108 v -4.824 h 17.748 v -12.636 h -22.068 v 21.42 h 22.068 v -6.876 z m -43.776,2.736 v -13.32 h 9.108 v 13.32 h -9.108 z m 17.748,-17.28 h -22.068 v 25.74 h 4.32 v -4.32 h 17.748 v -21.42 z m -43.992,17.46 v -13.32 h 9.108 v 13.32 h -9.108 z m 17.748,-17.46 h -22.068 v 21.42 h 22.068 v -21.42 z"
   id="path25"
   inkscape:connector-curvature="0"
   style="fill:#61798f" />
	<path
   d="m 493.805,365.793 v -13.32 h 9.108 v 13.32 h -9.108 z m 17.748,-21.78 h -8.64 v 4.32 h -13.429 v 21.42 h 22.068 v -25.74 z m -26.208,0.036 -8.28,-0.036 v 25.74 h 8.28 v -25.704 z m -12.924,4.284 h -8.279 v 21.42 h 8.279 v -21.42 z m 0,-4.32 h -8.279 v 2.664 h 8.279 v -2.664 z m -12.851,4.32 h -8.64 v 17.28 h -9.108 v -17.28 h -4.32 v 21.42 h 22.068 v -21.42 z m -43.884,17.46 v -13.32 h 9.108 v 13.32 h -9.108 z m 17.748,-17.46 h -17.748 v -4.32 h -4.32 v 25.74 h 22.068 v -21.42 z"
   id="path27"
   inkscape:connector-curvature="0"
   style="fill:#61798f" />
	<path
   d="m 555.508,400.029 v -4.356 h 9.108 v 4.356 h -9.108 z m 17.748,6.047 h -8.64 v 2.916 h -9.108 v -4.824 h 17.748 v -12.635 h -22.067 v 21.42 h 22.067 v -6.877 z m -25.524,-1.799 h -8.64 v 4.715 h -9.108 v -13.319 h 9.108 v 4.896 h 8.64 v -9.035 h -22.067 v 21.42 h 22.067 v -8.677 z m -25.883,-12.744 h -8.279 v 21.42 h 8.279 v -21.42 z m 0,-4.32 h -8.279 v 2.664 h 8.279 v -2.664 z m -12.277,4.32 h -8.64 v 15.801 l -9.107,-7.424 v -8.377 h -4.32 v 10.475 l 13.428,10.945 h 8.64 v -21.42 z m -25.127,0 h -22.067 v 21.42 h 4.319 v -17.28 h 9.108 v 4.896 h 8.64 v -9.036 z m -42.695,8.496 v -4.356 h 9.108 v 4.356 h -9.108 z m 17.748,6.047 h -8.64 v 2.916 h -9.108 v -4.824 h 17.748 V 391.533 H 437.43 v 21.42 h 22.068 v -6.877 z m -25.956,-14.543 h -22.068 v 12.6 h 13.428 v 4.68 h -9.216 v -3.456 h -4.212 v 7.597 h 22.068 v -12.78 h -17.748 v -4.5 h 9.108 v 3.276 h 8.64 v -7.417 z"
   id="path29"
   inkscape:connector-curvature="0"
   style="fill:#61798f" />
</g>
</svg>